<svg width="64" height="14" viewBox="0 0 64 14" fill="none" xmlns="http://www.w3.org/2000/svg">
    <path d="M0 13.4182V4.43273C0 4.33102 0.0373708 4.24062 0.110555 4.16152C0.18374 4.08241 0.272496 4.04206 0.376823 4.04206H1.20521C1.29085 4.04206 1.37961 4.08726 1.47148 4.17605C1.5322 4.23901 1.60072 4.30842 1.6739 4.38107C1.74709 4.45371 1.83584 4.49084 1.94017 4.49084C2.08187 4.49084 2.20021 4.45856 2.29831 4.3956C2.3964 4.33264 2.51475 4.25676 2.65333 4.1712C2.79191 4.08564 2.96164 4.01138 3.16406 3.94681C3.36649 3.88223 3.62964 3.85156 3.95508 3.85156C4.48294 3.85156 4.96565 3.93551 5.40476 4.10502C5.84386 4.27291 6.22069 4.51667 6.53678 4.8347C6.85287 5.15273 7.09734 5.5434 7.2733 6.00833C7.44769 6.47327 7.53489 6.99147 7.53489 7.56295V13.4198C7.53489 13.5215 7.49752 13.6119 7.42434 13.691C7.35115 13.7701 7.2624 13.8105 7.15807 13.8105H6.21913C6.12103 13.8105 6.03383 13.7701 5.95753 13.691C5.88123 13.6119 5.84231 13.5215 5.84231 13.4198V7.56134C5.84231 6.9382 5.64455 6.45712 5.24904 6.1165C4.85354 5.77587 4.35837 5.60636 3.76355 5.60636C3.17496 5.60636 2.68291 5.77264 2.28741 6.10197C1.8919 6.43291 1.69414 6.88331 1.69414 7.45641V13.4182C1.69414 13.5199 1.65677 13.6103 1.58359 13.6894C1.5104 13.7685 1.42165 13.8089 1.31732 13.8089H0.376823C0.278724 13.8089 0.191525 13.7685 0.115227 13.6894C0.0389279 13.6103 0 13.5199 0 13.4182Z"
          fill="white"/>
    <path d="M9.38281 8.92546C9.38281 8.40403 9.39527 7.94878 9.42018 7.56134C9.45755 7.05282 9.57278 6.57013 9.77053 6.11165C9.96673 5.65318 10.2299 5.25928 10.5616 4.92833C10.8932 4.59739 11.2887 4.33587 11.7481 4.14215C12.2074 3.94842 12.7197 3.85156 13.285 3.85156C13.8486 3.85156 14.3609 3.94842 14.8218 4.14215C15.2812 4.33587 15.6782 4.59901 16.0084 4.92833C16.34 5.25928 16.6032 5.65318 16.7994 6.11165C16.9956 6.57013 17.1123 7.05282 17.1497 7.56134C17.1746 7.94878 17.1871 8.40403 17.1871 8.92546C17.1871 9.4469 17.1746 9.90214 17.1497 10.2896C17.1123 10.7981 16.9956 11.2808 16.7994 11.7393C16.6032 12.1978 16.34 12.5917 16.0084 12.9226C15.6767 13.2535 15.2812 13.5151 14.8218 13.7088C14.3625 13.9025 13.8502 13.9994 13.285 13.9994C12.7213 13.9994 12.209 13.9025 11.7481 13.7088C11.2872 13.5151 10.8932 13.2519 10.5616 12.9226C10.2299 12.5933 9.96673 12.1978 9.77053 11.7393C9.57434 11.2808 9.45755 10.7981 9.42018 10.2896C9.39527 9.90214 9.38281 9.4469 9.38281 8.92546ZM11.077 8.92546C11.077 9.43398 11.0894 9.88923 11.1143 10.2896C11.1517 10.811 11.3604 11.2679 11.7403 11.6586C12.1202 12.0492 12.6356 12.2446 13.2865 12.2446C13.9358 12.2446 14.4497 12.0492 14.8281 11.6586C15.2049 11.2679 15.4151 10.811 15.4587 10.2896C15.4836 9.88923 15.4961 9.43398 15.4961 8.92546C15.4961 8.41694 15.4836 7.9617 15.4587 7.56134C15.4213 7.0399 15.2127 6.58304 14.8327 6.19237C14.4528 5.8017 13.9374 5.60636 13.2865 5.60636C12.6356 5.60636 12.1218 5.8017 11.7403 6.19237C11.3604 6.58304 11.1517 7.0399 11.1143 7.56134C11.0879 7.9617 11.077 8.41694 11.077 8.92546Z"
          fill="white"/>
    <path d="M18.0039 5.5173V4.54062C18.0039 4.43891 18.0428 4.34851 18.1191 4.27102C18.1954 4.19192 18.2826 4.15317 18.3807 4.15317H19.7058C19.8288 4.15317 19.8896 4.09021 19.8896 3.96268V0.919631C19.8896 0.817927 19.9285 0.727523 20.0048 0.646806C20.0811 0.567702 20.1683 0.527344 20.2664 0.527344H21.2053C21.3034 0.527344 21.3906 0.567702 21.4669 0.646806C21.5432 0.725909 21.5822 0.817927 21.5822 0.919631V3.96107C21.5822 4.0886 21.646 4.15156 21.7752 4.15156H23.9365C24.0346 4.15156 24.1218 4.19192 24.1981 4.26941C24.2744 4.3469 24.3133 4.43891 24.3133 4.539V5.51569C24.3133 5.61739 24.276 5.70779 24.2028 5.78528C24.1296 5.86277 24.0408 5.90313 23.9365 5.90313H21.7752C21.6522 5.90313 21.5884 5.9677 21.5822 6.09524V10.6977C21.5822 11.132 21.6896 11.4791 21.9045 11.7406C22.1194 12.0021 22.5149 12.1329 23.091 12.1329H24.1312C24.2293 12.1329 24.3165 12.17 24.3928 12.2459C24.4691 12.3218 24.508 12.4122 24.508 12.5187V13.4244C24.508 13.5245 24.4691 13.6149 24.3928 13.694C24.3165 13.7731 24.2293 13.8118 24.1312 13.8118H23.091C22.11 13.8118 21.3315 13.5713 20.7538 13.0902C20.1761 12.6091 19.8896 11.8116 19.8896 10.6977V6.09846C19.8896 5.97093 19.8288 5.90636 19.7058 5.90636H18.3807C18.2826 5.90636 18.1954 5.866 18.1191 5.78851C18.0428 5.70941 18.0039 5.619 18.0039 5.5173Z"
          fill="white"/>
    <path d="M26.2891 1.65955V0.314798C26.2891 0.238924 26.3186 0.166278 26.3763 0.10009C26.4354 0.0339013 26.5071 0 26.5927 0H27.8711C27.9567 0 28.0284 0.0339013 28.0875 0.10009C28.1451 0.166278 28.1747 0.238924 28.1747 0.314798V1.65955C28.1747 1.86942 28.0735 1.97435 27.8711 1.97435H26.5927C26.3903 1.97435 26.2891 1.86942 26.2891 1.65955ZM26.3809 13.4201V4.43462C26.3809 4.33291 26.4199 4.24251 26.4962 4.16341C26.5725 4.0843 26.6597 4.04394 26.7578 4.04394H27.7419C27.8399 4.04394 27.9271 4.0843 28.0034 4.16341C28.0797 4.24251 28.1187 4.33291 28.1187 4.43462V13.4201C28.1187 13.5218 28.0797 13.6122 28.0034 13.6913C27.9271 13.7704 27.8399 13.8108 27.7419 13.8108H26.7578C26.6597 13.8108 26.5725 13.7704 26.4962 13.6913C26.4199 13.6122 26.3809 13.5218 26.3809 13.4201Z"
          fill="white"/>
    <path d="M30.5898 8.92546C30.5898 8.40403 30.6023 7.94878 30.6272 7.56134C30.6646 7.05282 30.7798 6.57013 30.9776 6.11165C31.1738 5.65318 31.4369 5.25928 31.7686 4.92833C32.1002 4.59739 32.4958 4.33587 32.9551 4.14215C33.4145 3.94842 33.9267 3.85156 34.492 3.85156C35.0557 3.85156 35.5679 3.94842 36.0288 4.14215C36.4882 4.33587 36.8853 4.59901 37.2154 4.92833C37.547 5.25928 37.8102 5.65318 38.0064 6.11165C38.2026 6.57013 38.3194 7.05282 38.3567 7.56134C38.3817 7.94878 38.3941 8.40403 38.3941 8.92546C38.3941 9.4469 38.3817 9.90214 38.3567 10.2896C38.3194 10.7981 38.2026 11.2808 38.0064 11.7393C37.8102 12.1978 37.547 12.5917 37.2154 12.9226C36.8837 13.2535 36.4882 13.5151 36.0288 13.7088C35.5695 13.9025 35.0572 13.9994 34.492 13.9994C33.9283 13.9994 33.416 13.9025 32.9551 13.7088C32.4942 13.5151 32.1002 13.2519 31.7686 12.9226C31.4369 12.5933 31.1738 12.1978 30.9776 11.7393C30.7814 11.2808 30.6646 10.7981 30.6272 10.2896C30.6023 9.90214 30.5898 9.4469 30.5898 8.92546ZM32.2824 8.92546C32.2824 9.43398 32.2949 9.88923 32.3198 10.2896C32.3572 10.811 32.5658 11.2679 32.9458 11.6586C33.3257 12.0492 33.8411 12.2446 34.492 12.2446C35.1413 12.2446 35.6551 12.0492 36.0335 11.6586C36.4103 11.2679 36.6206 10.811 36.6642 10.2896C36.6891 9.88923 36.7015 9.43398 36.7015 8.92546C36.7015 8.41694 36.6891 7.9617 36.6642 7.56134C36.6268 7.0399 36.4181 6.58304 36.0382 6.19237C35.6583 5.8017 35.1429 5.60636 34.492 5.60636C33.8411 5.60636 33.3273 5.8017 32.9458 6.19237C32.5658 6.58304 32.3572 7.0399 32.3198 7.56134C32.2949 7.9617 32.2824 8.41694 32.2824 8.92546Z"
          fill="white"/>
    <path d="M40.3359 13.4182V4.43273C40.3359 4.33102 40.3733 4.24062 40.4465 4.16152C40.5197 4.08241 40.6084 4.04206 40.7128 4.04206H41.5411C41.6268 4.04206 41.7155 4.08726 41.8074 4.17605C41.8681 4.23901 41.9367 4.30842 42.0098 4.38107C42.083 4.45371 42.1718 4.49084 42.2761 4.49084C42.4178 4.49084 42.5361 4.45856 42.6342 4.3956C42.7323 4.33264 42.8507 4.25676 42.9893 4.1712C43.1278 4.08564 43.2976 4.01138 43.5 3.94681C43.7024 3.88223 43.9656 3.85156 44.291 3.85156C44.8189 3.85156 45.3016 3.93551 45.7407 4.10502C46.1798 4.27291 46.5566 4.51667 46.8727 4.8347C47.1888 5.15273 47.4333 5.5434 47.6092 6.00833C47.7836 6.47327 47.8708 6.99147 47.8708 7.56295V13.4198C47.8708 13.5215 47.8335 13.6119 47.7603 13.691C47.6871 13.7701 47.5983 13.8105 47.494 13.8105H46.5551C46.457 13.8105 46.3698 13.7701 46.2935 13.691C46.2172 13.6119 46.1782 13.5215 46.1782 13.4198V7.56134C46.1782 6.9382 45.9805 6.45712 45.585 6.1165C45.1895 5.77587 44.6943 5.60636 44.0995 5.60636C43.5109 5.60636 43.0189 5.77264 42.6233 6.10197C42.2278 6.43291 42.0301 6.88331 42.0301 7.45641V13.4182C42.0301 13.5199 41.9927 13.6103 41.9195 13.6894C41.8463 13.7685 41.7576 13.8089 41.6533 13.8089H40.7143C40.6162 13.8089 40.529 13.7685 40.4527 13.6894C40.3733 13.6103 40.3359 13.5199 40.3359 13.4182Z"
          fill="white"/>
    <path d="M50.293 9.78961L52.8326 0.629787C52.8591 0.489339 52.9432 0.419922 53.088 0.419922H53.756C53.8993 0.419922 53.9849 0.487725 54.0114 0.62333L56.5526 9.78961C56.5573 9.80737 56.5588 9.82512 56.5588 9.84288C56.5588 9.88324 56.5432 9.92521 56.5121 9.97042C56.4685 10.0334 56.3922 10.064 56.2863 10.064H55.9422C55.7958 10.064 55.7102 9.99463 55.6837 9.85418L55.0624 7.51983C55.0188 7.39069 54.9332 7.32611 54.8055 7.32611H52.0338C51.9061 7.32611 51.8221 7.3923 51.7769 7.52468L51.1323 9.85257C51.1073 9.99302 51.0264 10.064 50.8878 10.064H50.5686C50.4642 10.064 50.3911 10.0334 50.349 9.97042C50.3194 9.92521 50.3054 9.88324 50.3054 9.84288C50.3054 9.82512 50.3023 9.80737 50.293 9.78961ZM52.1288 6.32683C52.1241 6.34943 52.1226 6.37042 52.1226 6.38979C52.1226 6.45436 52.16 6.48665 52.2363 6.48665H54.6327C54.7121 6.48665 54.7526 6.45275 54.7526 6.38172C54.7526 6.36234 54.751 6.33974 54.7463 6.31391L53.5084 1.64037C53.4866 1.59194 53.4633 1.5645 53.4415 1.56127H53.4088C53.3761 1.56127 53.3527 1.59033 53.3418 1.64521L52.1288 6.32683Z"
          fill="white"/>
    <path d="M57.8672 9.78431V9.50341C57.8672 9.43077 57.8921 9.36619 57.9435 9.30808C57.9949 9.25157 58.0556 9.22252 58.1288 9.22252H59.8852C60.0051 9.22252 60.0674 9.17731 60.0736 9.08853V4.15023C60.0736 4.06144 60.0113 4.01624 59.8852 4.01624H58.258C58.1895 4.01624 58.1303 3.98718 58.0774 3.93068C58.0245 3.87417 57.998 3.80799 57.998 3.73534V3.45444C57.998 3.3818 58.0245 3.31722 58.079 3.25911C58.1335 3.20261 58.1942 3.17355 58.2643 3.17355H60.5937C60.6622 3.17355 60.7245 3.20261 60.779 3.25911C60.8335 3.31561 60.86 3.3818 60.86 3.45444V9.08691C60.86 9.1757 60.9036 9.2209 60.9908 9.2209H62.7394C62.8095 9.2209 62.8702 9.24996 62.9247 9.30646C62.9792 9.36296 63.0057 9.42754 63.0057 9.5018V9.7827C63.0057 9.85534 62.9792 9.91992 62.9278 9.97803C62.8765 10.0361 62.8126 10.0636 62.7394 10.0636H58.135C58.0649 10.0636 58.0042 10.0345 57.9497 9.97803C57.8952 9.92153 57.8672 9.85696 57.8672 9.78431ZM59.742 1.27346V0.546999C59.742 0.493725 59.7622 0.442066 59.8042 0.39525C59.8463 0.348434 59.9008 0.324219 59.9709 0.324219H60.7074C60.7728 0.324219 60.8257 0.348434 60.8709 0.39525C60.9145 0.442066 60.9363 0.492111 60.9363 0.546999V1.27346C60.9363 1.42198 60.86 1.49624 60.7074 1.49624H59.9709C59.8183 1.49462 59.742 1.42036 59.742 1.27346Z"
          fill="white"/>
</svg>
